<svg width="15" height="14" viewBox="0 0 15 14" fill="none" xmlns="http://www.w3.org/2000/svg">
<path d="M2.215 9.50912C2.37147 9.66555 2.58365 9.75342 2.8049 9.75342C3.02615 9.75342 3.23833 9.66555 3.3948 9.50912L7.52496 5.37897L11.6551 9.50912C11.8125 9.66111 12.0232 9.74521 12.242 9.74331C12.4608 9.74141 12.6701 9.65366 12.8248 9.49896C12.9795 9.34426 13.0672 9.13499 13.0691 8.91622C13.071 8.69745 12.9869 8.48668 12.8349 8.32932L8.11486 3.60926C7.95839 3.45284 7.74621 3.36496 7.52496 3.36496C7.30371 3.36496 7.09152 3.45284 6.93506 3.60926L2.215 8.32932C2.05858 8.48579 1.9707 8.69797 1.9707 8.91922C1.9707 9.14047 2.05858 9.35266 2.215 9.50912Z" fill="white"/>
</svg>
