<svg width="17" height="17" viewBox="0 0 17 17" fill="none" xmlns="http://www.w3.org/2000/svg">
<path d="M1.67755 5.71417C1.86508 5.5267 2.11939 5.42139 2.38455 5.42139C2.64972 5.42139 2.90402 5.5267 3.09155 5.71417L8.04155 10.6642L12.9916 5.71417C13.1802 5.53202 13.4328 5.43122 13.695 5.4335C13.9572 5.43578 14.208 5.54095 14.3934 5.72635C14.5788 5.91176 14.6839 6.16257 14.6862 6.42477C14.6885 6.68697 14.5877 6.93957 14.4056 7.12817L8.74855 12.7852C8.56102 12.9726 8.30672 13.078 8.04155 13.078C7.77639 13.078 7.52208 12.9726 7.33455 12.7852L1.67755 7.12817C1.49008 6.94065 1.38477 6.68634 1.38477 6.42117C1.38477 6.15601 1.49008 5.9017 1.67755 5.71417Z" fill="white"/>
</svg>
