<svg width="15" height="14" viewBox="0 0 15 14" fill="none" xmlns="http://www.w3.org/2000/svg">
<path d="M2.215 4.99136C2.37147 4.83494 2.58365 4.74707 2.8049 4.74707C3.02615 4.74707 3.23833 4.83494 3.3948 4.99136L7.52496 9.12152L11.6551 4.99136C11.8125 4.83938 12.0232 4.75528 12.242 4.75718C12.4608 4.75908 12.6701 4.84683 12.8248 5.00153C12.9795 5.15623 13.0672 5.3655 13.0691 5.58427C13.071 5.80304 12.9869 6.01381 12.8349 6.17117L8.11486 10.8912C7.95839 11.0477 7.74621 11.1355 7.52496 11.1355C7.30371 11.1355 7.09152 11.0477 6.93506 10.8912L2.215 6.17117C2.05858 6.0147 1.9707 5.80251 1.9707 5.58127C1.9707 5.36002 2.05858 5.14783 2.215 4.99136Z" fill="white"/>
</svg>
